<svg xmlns="http://www.w3.org/2000/svg" xmlns:xlink="http://www.w3.org/1999/xlink" width="125" zoomAndPan="magnify" viewBox="0 0 93.75 30.000001" height="40" preserveAspectRatio="xMidYMid meet" version="1.0"><defs><g/><clipPath id="f77fa3d30b"><path d="M 78 5 L 92.117188 5 L 92.117188 20 L 78 20 Z M 78 5 " clip-rule="nonzero"/></clipPath></defs><g fill="#48494b" fill-opacity="1"><g transform="translate(1.391128, 19.388413)"><g><path d="M 5.078125 0.390625 C 7.960938 1.390625 10.125 2.066406 11.5625 2.421875 C 13.007812 2.785156 14.253906 2.96875 15.296875 2.96875 C 16.335938 2.96875 17.476562 2.726562 18.71875 2.25 L 18.828125 2.421875 C 17.171875 3.554688 15.503906 4.125 13.828125 4.125 C 12.097656 4.125 10.140625 3.585938 7.953125 2.515625 C 6.253906 1.679688 5.203125 1.175781 4.796875 1 C 3.347656 0.34375 2.15625 0.0078125 1.21875 0 L 1.21875 -0.203125 L 1.484375 -0.203125 C 1.835938 -0.203125 2.140625 -0.320312 2.390625 -0.5625 C 2.640625 -0.8125 2.769531 -1.117188 2.78125 -1.484375 L 2.78125 -12.75 C 2.769531 -13.101562 2.640625 -13.40625 2.390625 -13.65625 C 2.140625 -13.90625 1.835938 -14.03125 1.484375 -14.03125 L 1.21875 -14.03125 L 1.21875 -14.234375 L 5.671875 -14.234375 L 5.671875 -14.03125 L 5.40625 -14.03125 C 5.050781 -14.03125 4.742188 -13.90625 4.484375 -13.65625 C 4.234375 -13.40625 4.109375 -13.101562 4.109375 -12.75 L 4.109375 -1.015625 C 4.109375 -0.773438 4.117188 -0.585938 4.140625 -0.453125 C 4.171875 -0.328125 4.257812 -0.179688 4.40625 -0.015625 C 4.5625 0.140625 4.785156 0.273438 5.078125 0.390625 Z M 5.078125 0.390625 "/></g></g></g><g fill="#48494b" fill-opacity="1"><g transform="translate(9.544265, 19.388413)"><g><path d="M 14.9375 -14.03125 L 14.609375 -14.03125 C 14.328125 -14.03125 14.082031 -13.9375 13.875 -13.75 C 13.664062 -13.570312 13.550781 -13.347656 13.53125 -13.078125 L 13.53125 -5.015625 C 13.53125 -3.429688 13.03125 -2.148438 12.03125 -1.171875 C 11.03125 -0.203125 9.695312 0.28125 8.03125 0.28125 C 6.363281 0.28125 5.007812 -0.203125 3.96875 -1.171875 C 2.9375 -2.140625 2.421875 -3.414062 2.421875 -5 L 2.421875 -13.015625 C 2.421875 -13.421875 2.242188 -13.71875 1.890625 -13.90625 C 1.722656 -13.988281 1.539062 -14.03125 1.34375 -14.03125 L 1.015625 -14.03125 L 1.015625 -14.234375 L 5.140625 -14.234375 L 5.140625 -14.03125 L 4.8125 -14.03125 C 4.519531 -14.03125 4.269531 -13.9375 4.0625 -13.75 C 3.863281 -13.570312 3.753906 -13.335938 3.734375 -13.046875 L 3.734375 -5.28125 C 3.734375 -3.800781 4.128906 -2.609375 4.921875 -1.703125 C 5.722656 -0.796875 6.785156 -0.34375 8.109375 -0.34375 C 9.441406 -0.34375 10.519531 -0.769531 11.34375 -1.625 C 12.164062 -2.488281 12.578125 -3.617188 12.578125 -5.015625 L 12.578125 -13.046875 C 12.566406 -13.335938 12.457031 -13.570312 12.25 -13.75 C 12.050781 -13.9375 11.800781 -14.03125 11.5 -14.03125 L 11.1875 -14.03125 L 11.1875 -14.234375 L 14.9375 -14.234375 Z M 14.9375 -14.03125 "/></g></g></g><g fill="#48494b" fill-opacity="1"><g transform="translate(25.504906, 19.388413)"><g><path d="M 1.484375 -0.203125 C 1.835938 -0.203125 2.140625 -0.328125 2.390625 -0.578125 C 2.640625 -0.828125 2.769531 -1.128906 2.78125 -1.484375 L 2.78125 -12.765625 C 2.769531 -13.117188 2.640625 -13.414062 2.390625 -13.65625 C 2.140625 -13.90625 1.835938 -14.03125 1.484375 -14.03125 L 1.21875 -14.03125 L 1.21875 -14.234375 L 5.671875 -14.234375 L 5.671875 -14.03125 L 5.40625 -14.03125 C 5.050781 -14.03125 4.75 -13.90625 4.5 -13.65625 C 4.25 -13.414062 4.117188 -13.117188 4.109375 -12.765625 L 4.109375 -1.484375 C 4.109375 -1.128906 4.234375 -0.828125 4.484375 -0.578125 C 4.742188 -0.328125 5.050781 -0.203125 5.40625 -0.203125 L 5.671875 -0.203125 L 5.671875 0 L 1.21875 0 L 1.21875 -0.203125 Z M 1.484375 -0.203125 "/></g></g></g><g fill="#48494b" fill-opacity="1"><g transform="translate(32.377139, 19.388413)"><g><path d="M 1.234375 -0.828125 C 1.191406 -1.023438 1.171875 -1.394531 1.171875 -1.9375 C 1.171875 -2.476562 1.273438 -3.050781 1.484375 -3.65625 L 1.671875 -3.65625 C 1.648438 -3.507812 1.640625 -3.363281 1.640625 -3.21875 C 1.640625 -2.382812 1.890625 -1.691406 2.390625 -1.140625 C 2.898438 -0.597656 3.566406 -0.328125 4.390625 -0.328125 C 5.242188 -0.328125 5.941406 -0.582031 6.484375 -1.09375 C 7.035156 -1.613281 7.3125 -2.257812 7.3125 -3.03125 C 7.3125 -3.8125 7.050781 -4.445312 6.53125 -4.9375 L 2.625 -8.5625 C 1.894531 -9.238281 1.53125 -10.054688 1.53125 -11.015625 C 1.53125 -11.984375 1.847656 -12.804688 2.484375 -13.484375 C 3.128906 -14.171875 4.003906 -14.515625 5.109375 -14.515625 C 5.617188 -14.515625 6.195312 -14.445312 6.84375 -14.3125 L 7.640625 -14.3125 L 7.640625 -11.8125 L 7.453125 -11.8125 C 7.453125 -12.445312 7.234375 -12.953125 6.796875 -13.328125 C 6.359375 -13.710938 5.789062 -13.90625 5.09375 -13.90625 C 4.40625 -13.90625 3.828125 -13.671875 3.359375 -13.203125 C 2.890625 -12.742188 2.65625 -12.171875 2.65625 -11.484375 C 2.65625 -10.796875 2.925781 -10.203125 3.46875 -9.703125 L 7.484375 -6 C 8.160156 -5.375 8.5 -4.519531 8.5 -3.4375 C 8.5 -2.351562 8.148438 -1.460938 7.453125 -0.765625 C 6.765625 -0.0664062 5.847656 0.28125 4.703125 0.28125 C 4.097656 0.28125 3.457031 0.1875 2.78125 0 C 2.113281 -0.175781 1.597656 -0.453125 1.234375 -0.828125 Z M 1.234375 -0.828125 "/></g></g></g><g fill="#48494b" fill-opacity="1"><g transform="translate(42.055184, 19.388413)"><g/></g></g><g fill="#48494b" fill-opacity="1"><g transform="translate(47.138185, 19.388413)"><g><path d="M -2.03125 -11.265625 C -1.632812 -12.410156 -0.972656 -13.203125 -0.046875 -13.640625 C 0.867188 -14.078125 2.5 -14.296875 4.84375 -14.296875 C 5.320312 -14.296875 6.550781 -14.273438 8.53125 -14.234375 C 9.96875 -14.191406 11.234375 -13.878906 12.328125 -13.296875 C 13.429688 -12.710938 14.289062 -11.890625 14.90625 -10.828125 C 15.519531 -9.765625 15.828125 -8.523438 15.828125 -7.109375 C 15.828125 -4.984375 15.15625 -3.265625 13.8125 -1.953125 C 12.46875 -0.648438 10.707031 0 8.53125 0 L 1.640625 0 L 1.671875 -0.203125 L 1.90625 -0.203125 C 2.25 -0.203125 2.539062 -0.3125 2.78125 -0.53125 C 3.03125 -0.757812 3.175781 -1.035156 3.21875 -1.359375 L 3.21875 -13.625 C 1.519531 -13.582031 0.316406 -13.316406 -0.390625 -12.828125 C -0.753906 -12.566406 -1.03125 -12.316406 -1.21875 -12.078125 C -1.40625 -11.847656 -1.601562 -11.550781 -1.8125 -11.1875 Z M 4.53125 -13.625 L 4.53125 -0.609375 L 8.53125 -0.609375 C 10.257812 -0.609375 11.65625 -1.203125 12.71875 -2.390625 C 13.78125 -3.585938 14.3125 -5.160156 14.3125 -7.109375 C 14.3125 -8.398438 14.070312 -9.535156 13.59375 -10.515625 C 13.113281 -11.503906 12.4375 -12.269531 11.5625 -12.8125 C 10.6875 -13.351562 9.675781 -13.625 8.53125 -13.625 Z M 4.53125 -13.625 "/></g></g></g><g fill="#48494b" fill-opacity="1"><g transform="translate(64.176445, 19.388413)"><g><path d="M 14.546875 -0.203125 L 14.71875 -0.203125 L 14.71875 0 L 10.140625 0 L 10.140625 -0.203125 L 10.328125 -0.203125 C 10.609375 -0.203125 10.816406 -0.289062 10.953125 -0.46875 C 11.097656 -0.65625 11.171875 -0.828125 11.171875 -0.984375 C 11.171875 -1.148438 11.144531 -1.316406 11.09375 -1.484375 L 9.796875 -4.9375 L 4.3125 -4.9375 L 2.9375 -1.46875 C 2.882812 -1.300781 2.859375 -1.140625 2.859375 -0.984375 C 2.859375 -0.828125 2.925781 -0.65625 3.0625 -0.46875 C 3.207031 -0.289062 3.425781 -0.203125 3.71875 -0.203125 L 3.890625 -0.203125 L 3.890625 0 L -0.1875 0 L -0.1875 -0.203125 L 0 -0.203125 C 0.332031 -0.203125 0.660156 -0.3125 0.984375 -0.53125 C 1.316406 -0.75 1.582031 -1.066406 1.78125 -1.484375 L 6.375 -12.421875 C 6.875 -13.515625 7.125 -14.210938 7.125 -14.515625 L 7.3125 -14.515625 L 12.765625 -1.484375 C 12.953125 -1.066406 13.207031 -0.75 13.53125 -0.53125 C 13.851562 -0.3125 14.191406 -0.203125 14.546875 -0.203125 Z M 4.546875 -5.546875 L 9.546875 -5.546875 L 7.109375 -12.078125 Z M 4.546875 -5.546875 "/></g></g></g><g clip-path="url(#f77fa3d30b)"><g fill="#48494b" fill-opacity="1"><g transform="translate(78.652871, 19.388413)"><g><path d="M 13.671875 -14.03125 L 13.390625 -14.03125 C 12.984375 -14.03125 12.597656 -13.914062 12.234375 -13.6875 C 11.878906 -13.46875 11.582031 -13.1875 11.34375 -12.84375 L 7.328125 -6.34375 L 7.328125 -1.484375 C 7.328125 -1.128906 7.453125 -0.828125 7.703125 -0.578125 C 7.953125 -0.328125 8.265625 -0.203125 8.640625 -0.203125 L 8.875 -0.203125 L 8.875 0 L 4.453125 0 L 4.453125 -0.203125 L 4.71875 -0.203125 C 5.0625 -0.203125 5.359375 -0.320312 5.609375 -0.5625 C 5.859375 -0.8125 5.992188 -1.113281 6.015625 -1.46875 L 6.015625 -6.359375 L 2.125 -12.84375 C 1.925781 -13.164062 1.640625 -13.441406 1.265625 -13.671875 C 0.890625 -13.910156 0.5 -14.03125 0.09375 -14.03125 L -0.1875 -14.03125 L -0.1875 -14.234375 L 4.8125 -14.234375 L 4.8125 -14.03125 L 4.546875 -14.03125 C 4.242188 -14.03125 4.015625 -13.894531 3.859375 -13.625 C 3.773438 -13.46875 3.734375 -13.316406 3.734375 -13.171875 C 3.734375 -13.035156 3.769531 -12.898438 3.84375 -12.765625 L 6.890625 -7.078125 L 10.140625 -12.78125 C 10.203125 -12.914062 10.234375 -13.050781 10.234375 -13.1875 C 10.234375 -13.320312 10.1875 -13.46875 10.09375 -13.625 C 9.9375 -13.894531 9.707031 -14.03125 9.40625 -14.03125 L 9.15625 -14.03125 L 9.15625 -14.234375 L 13.671875 -14.234375 Z M 13.671875 -14.03125 "/></g></g></g></g></svg>